<svg width="24" height="24" viewBox="0 0 24 24" fill="none" xmlns="http://www.w3.org/2000/svg">
<path d="M19 3C19.5304 3 20.039 3.21086 20.4141 3.58594C20.7891 3.96101 21 4.46957 21 5V19C21 19.5304 20.7891 20.039 20.4141 20.4141C20.039 20.7891 19.5304 21 19 21H5C4.46957 21 3.96101 20.7891 3.58594 20.4141C3.21086 20.039 3 19.5304 3 19V5C3 4.46957 3.21086 3.96101 3.58594 3.58594C3.96101 3.21086 4.46957 3 5 3H19ZM9.27539 6.86035C9.09544 6.86035 8.93489 6.92476 8.79492 7.05469C8.66496 7.18465 8.59965 7.34989 8.59961 7.5498V16.3096C8.59961 16.4995 8.66505 16.6647 8.79492 16.8047C8.93492 16.9347 9.09539 17 9.27539 17H14.4346C14.6146 17 14.7704 16.9347 14.9004 16.8047C15.0402 16.6648 15.1104 16.4994 15.1104 16.3096V15.9199C15.1103 15.72 15.0403 15.5548 14.9004 15.4248C14.7704 15.2948 14.6146 15.2305 14.4346 15.2305H10.5654C10.4455 15.2305 10.3848 15.1651 10.3848 15.0352V7.5498C10.3847 7.34989 10.3148 7.18465 10.1748 7.05469C10.0449 6.92493 9.88505 6.86042 9.69531 6.86035H9.27539Z" fill="#E2E2E2"/>
</svg>
